<?xml version="1.0" standalone="no"?>
<!DOCTYPE svg PUBLIC "-//W3C//DTD SVG 20010904//EN"
 "http://www.w3.org/TR/2001/REC-SVG-20010904/DTD/svg10.dtd">
<svg version="1.0" xmlns="http://www.w3.org/2000/svg"
 width="496.000000pt" height="477.000000pt" viewBox="0 0 496.000000 477.000000"
 preserveAspectRatio="xMidYMid meet">
<metadata>
Created by potrace 1.15, written by Peter Selinger 2001-2017
</metadata>
<g transform="translate(0.000000,477.000000) scale(0.100000,-0.100000)"
fill="#000000" stroke="none">
<path d="M915 4400 c-66 -10 -154 -27 -195 -37 l-75 -19 -3 -105 c-7 -267 82
-578 232 -803 61 -91 190 -221 279 -279 73 -48 204 -110 217 -102 6 3 10 1 10
-5 0 -6 10 -10 23 -9 12 2 28 0 35 -5 7 -4 16 -5 19 -2 4 3 1 6 -5 6 -6 0 -9
14 -7 33 1 17 6 68 10 112 3 44 17 168 30 275 13 107 29 249 35 315 7 66 23
215 36 330 13 116 26 225 28 243 4 37 -3 44 -53 48 -20 1 -47 6 -61 10 -14 4
-117 9 -230 10 -160 2 -232 -1 -325 -16z"/>
<path d="M2186 1782 c-129 -251 -194 -538 -198 -880 -1 -86 -3 -133 -5 -103
l-4 54 -157 -7 c-148 -7 -256 -14 -537 -35 -66 -5 -158 -19 -205 -31 -47 -12
-89 -23 -95 -24 -30 -6 -55 -31 -70 -70 -16 -43 -16 -47 1 -83 21 -41 84 -80
144 -87 19 -2 98 -13 175 -24 158 -24 447 -46 524 -41 28 2 51 1 51 -3 0 -5
140 -8 310 -8 171 0 310 3 310 8 0 4 23 5 51 3 77 -5 366 17 524 41 77 11 155
22 174 25 103 12 174 88 151 157 -13 40 -49 78 -76 82 -11 1 -53 12 -94 23
-41 12 -129 25 -195 31 -409 33 -488 35 -540 16 -11 -4 31 18 94 48 206 101
376 234 502 393 67 84 139 211 132 231 -5 11 -3 13 7 7 9 -5 11 -4 6 4 -6 9
-11 9 -21 1 -11 -9 -12 -6 -9 12 5 20 4 21 -6 6 -14 -22 -33 -23 -50 -3 -7 8
-24 15 -38 15 -14 0 -45 10 -69 21 -25 12 -59 25 -76 29 -33 8 -180 69 -230
95 -16 8 -36 15 -46 15 -9 0 -21 4 -26 8 -6 5 -41 19 -80 32 -38 12 -74 26
-80 31 -5 5 -18 9 -30 9 -11 0 -29 6 -40 14 -11 7 -31 17 -44 21 -13 4 -35 18
-48 31 -13 13 -28 24 -32 24 -5 0 -29 -40 -55 -88z"/>
</g>
</svg>
